<?xml version="1.0" standalone="no"?>
<!DOCTYPE svg PUBLIC "-//W3C//DTD SVG 20010904//EN"
 "http://www.w3.org/TR/2001/REC-SVG-20010904/DTD/svg10.dtd">
<svg version="1.0" xmlns="http://www.w3.org/2000/svg"
 width="256.000000pt" height="256.000000pt" viewBox="0 0 256.000000 256.000000"
 preserveAspectRatio="xMidYMid meet">
<metadata>
Created by potrace 1.14, written by Peter Selinger 2001-2017
</metadata>
<g transform="translate(0.000000,256.000000) scale(0.100000,-0.100000)"
fill="#000000" stroke="none">
<path d="M617 2052 c-11 -2 -17 -13 -17 -33 0 -26 -4 -29 -30 -29 -22 0 -30
-5 -31 -17 0 -10 -1 -139 -2 -288 l-2 -270 -30 -2 c-16 -1 -34 2 -40 7 -6 5
-17 5 -25 0 -22 -14 -49 6 -46 35 l3 25 -183 -1 c-101 0 -185 -4 -185 -7 -1
-4 -2 -53 -3 -110 l-1 -102 32 0 c35 0 53 -16 26 -23 -16 -4 -16 -5 -1 -6 9 0
18 -10 20 -21 2 -12 5 -21 8 -21 3 0 21 -4 40 -8 20 -4 44 -5 55 -1 11 4 28 4
37 -1 10 -6 19 -5 23 1 4 6 11 7 18 3 6 -4 30 -7 53 -7 23 -1 45 -4 48 -9 3
-4 3 -5 -1 -2 -3 3 -12 0 -20 -6 -7 -6 -13 -7 -13 -2 0 5 -11 9 -24 9 -16 0
-22 -5 -19 -13 3 -9 13 -11 25 -7 16 5 19 3 12 -7 -7 -12 -5 -12 9 -1 19 16
39 8 30 -13 -3 -10 1 -15 13 -16 11 -1 30 -2 44 -3 14 0 30 -5 37 -9 6 -4 14
-3 17 2 4 5 14 8 23 7 16 -3 18 -17 19 -109 l2 -107 -109 0 -109 0 0 -149 0
-149 38 0 c20 0 42 -1 47 -2 6 -1 13 -2 18 -1 4 0 8 -4 8 -9 1 -6 2 -14 3 -19
0 -5 4 -13 8 -17 4 -3 5 4 3 17 -4 21 -2 22 8 8 8 -10 26 -15 52 -14 22 1 46
-3 53 -8 7 -6 12 -6 11 -1 -4 21 2 28 11 14 9 -13 10 -13 10 0 0 13 2 13 9 1
8 -13 12 -13 27 0 16 12 17 12 11 -4 -4 -11 -3 -16 4 -12 5 4 7 15 4 26 -5 15
-3 18 12 12 17 -6 17 -6 1 10 -18 18 -29 22 -27 10 4 -22 -3 -29 -26 -29 -14
0 -25 4 -25 8 0 4 11 8 23 8 20 0 24 5 23 32 -1 28 2 32 26 33 17 1 25 -2 21
-9 -9 -14 -11 -45 -4 -44 3 0 8 -1 11 -2 3 -1 16 -3 30 -5 14 -1 34 -6 44 -11
14 -5 17 -4 12 4 -11 18 0 14 15 -5 12 -14 12 -16 0 -8 -10 6 -12 4 -6 -4 6
-10 3 -11 -12 -2 -21 11 -33 6 -33 -13 0 -6 5 -4 10 4 5 8 10 10 10 5 0 -9 54
-13 70 -6 16 8 40 8 40 0 0 -5 5 -9 11 -9 5 0 7 5 3 12 -5 8 -2 9 10 5 11 -4
15 -3 11 4 -4 6 -13 8 -19 6 -7 -3 -13 1 -13 8 0 10 5 11 17 5 10 -5 20 -6 24
-3 3 3 7 1 7 -5 3 -26 4 -31 11 -38 4 -3 5 3 3 15 -2 12 0 19 6 16 5 -4 9 -2
9 3 0 5 9 12 19 15 14 3 18 1 14 -9 -3 -7 -10 -12 -15 -11 -6 1 -13 -4 -15
-10 -3 -7 2 -13 11 -13 9 0 16 4 16 8 0 5 7 9 15 9 18 0 20 -13 3 -20 -8 -4
-9 -6 -2 -6 7 -1 19 10 28 24 9 14 14 25 10 25 -4 0 -1 7 6 16 8 8 9 14 4 12
-10 -3 -14 4 -14 25 0 8 4 7 10 -3 5 -8 10 -10 10 -4 0 6 -3 14 -7 18 -14 14
-10 33 8 45 16 9 21 9 25 -4 5 -12 10 -13 20 -4 16 13 8 33 -10 26 -7 -3 -13
1 -13 8 0 7 8 10 21 7 28 -7 37 -23 23 -42 -10 -13 -10 -13 4 -3 9 7 20 9 25
5 4 -4 2 2 -6 12 -14 18 -14 19 5 9 11 -6 26 -8 34 -5 9 3 11 0 6 -8 -5 -8 -4
-11 3 -6 6 3 14 2 17 -4 4 -6 12 -7 18 -3 7 5 24 8 39 7 15 0 25 3 22 7 -3 5
-1 9 5 9 5 0 11 -6 14 -12 2 -7 8 -1 12 15 4 15 11 27 16 27 5 0 5 -8 2 -17
-6 -16 -5 -16 10 -5 9 8 21 11 27 7 5 -3 10 -1 10 4 0 6 4 11 10 11 5 0 9 -3
9 -7 -3 -19 2 -27 9 -16 4 7 9 -15 10 -49 2 -34 5 -64 8 -67 10 -10 135 -18
140 -9 6 10 34 -2 34 -15 0 -6 -3 -7 -6 -4 -4 3 -14 2 -24 -3 -10 -5 -20 -6
-24 -2 -4 3 -22 7 -40 7 -29 1 -32 -1 -27 -19 5 -20 5 -20 9 -2 3 15 6 16 13
5 7 -12 9 -12 9 0 0 11 4 9 15 -5 15 -19 15 -19 8 1 -6 17 -5 18 9 7 9 -7 20
-12 24 -11 5 1 11 0 14 -1 29 -11 38 -6 34 19 l-4 26 15 -25 15 -25 -4 28 c-4
24 -3 27 10 17 11 -10 14 -10 14 -1 0 7 5 9 10 6 14 -8 13 -26 -1 -23 -6 2
-14 -3 -16 -9 -6 -15 13 -17 22 -3 4 7 13 6 26 -1 22 -12 35 -7 25 10 -4 6
-12 8 -20 5 -7 -3 -13 2 -13 10 0 8 6 12 13 9 6 -2 16 2 20 9 12 18 14 79 3
72 -5 -3 -9 0 -9 6 0 6 13 8 33 6 17 -3 26 -3 19 0 -9 4 -10 10 -3 18 8 9 7
13 -4 13 -8 0 -11 -5 -8 -10 4 -6 1 -7 -7 -2 -9 6 -11 4 -5 -6 5 -8 4 -11 0
-6 -5 4 -9 16 -10 27 -1 14 2 17 14 11 9 -5 22 -6 29 -4 7 3 11 -3 10 -14 0
-10 0 -41 0 -68 l2 -50 38 -2 c75 -3 92 -7 89 -23 -1 -8 -6 -19 -12 -23 -6 -5
-4 -7 5 -4 8 2 14 10 12 16 -1 6 2 11 8 11 5 0 10 -6 10 -12 0 -10 3 -9 9 1 7
11 9 11 13 0 3 -9 6 -9 11 3 4 12 1 16 -13 13 -11 -2 -22 1 -26 6 -3 6 2 9 12
8 11 -2 24 0 31 4 8 5 11 -1 8 -20 -2 -16 -2 -22 1 -15 5 10 9 9 20 -5 9 -11
13 -13 12 -4 -2 7 5 15 15 16 9 2 17 -1 17 -6 0 -5 5 -9 11 -9 5 0 8 4 5 9 -4
5 0 12 6 15 7 3 1 3 -14 1 -16 -2 -28 1 -28 6 0 9 14 13 36 10 6 -1 17 6 24
14 7 8 8 15 3 15 -5 0 -10 7 -10 15 0 8 5 15 10 15 5 0 3 8 -4 17 -10 11 -10
14 -1 9 7 -4 12 -2 12 4 0 6 5 8 11 4 7 -4 7 -9 2 -13 -6 -3 -9 -19 -9 -35 1
-16 -5 -36 -14 -44 -13 -14 -13 -15 3 -9 12 5 16 3 11 -5 -4 -7 -3 -8 4 -4 8
5 10 2 6 -8 -3 -9 -1 -16 6 -16 6 0 8 5 5 10 -3 6 0 10 7 10 8 0 6 5 -4 11
-10 5 -18 15 -18 20 0 6 4 8 9 5 4 -3 7 10 5 29 -2 25 1 33 9 28 8 -4 7 -1 -1
9 -10 13 -9 16 7 21 11 2 25 0 32 -7 9 -8 10 -8 5 1 -3 6 -2 14 4 18 6 3 13
-1 16 -10 5 -12 10 -13 20 -4 16 13 8 33 -10 26 -7 -3 -13 1 -13 8 0 7 8 10
21 7 28 -7 37 -23 23 -42 -10 -13 -10 -13 4 -3 9 7 20 9 25 5 4 -4 2 2 -6 12
-14 18 -14 19 5 9 11 -6 26 -8 34 -5 8 2 11 0 8 -5 -3 -5 3 -10 14 -10 10 -1
20 2 20 8 3 19 5 24 12 35 4 7 0 14 -8 18 -8 3 -15 11 -15 17 0 8 4 9 13 0 8
-6 17 -8 21 -4 11 11 36 12 36 2 0 -6 4 -8 10 -4 5 3 2 13 -8 23 -11 12 -20
15 -25 8 -5 -6 -5 0 -1 14 4 14 7 37 7 51 1 14 6 26 13 26 7 0 11 -4 8 -9 -3
-4 0 -8 5 -8 6 0 11 6 11 13 0 9 3 8 9 -2 7 -10 9 -11 13 -1 2 8 11 14 20 16
11 1 15 -3 11 -13 -5 -12 -7 -12 -15 -1 -8 10 -9 9 -5 -3 4 -12 -1 -16 -16
-15 -14 1 -21 -4 -19 -14 2 -11 -2 -10 -12 4 -14 17 -15 16 -12 -18 5 -43 12
-54 27 -39 7 7 8 13 0 17 -7 4 -4 14 6 26 13 15 19 16 25 7 6 -9 8 -9 8 2 0
11 3 11 15 1 9 -7 18 -10 22 -6 3 3 2 6 -3 6 -5 0 -10 9 -11 20 -1 11 2 18 8
15 5 -4 9 -2 9 4 0 5 -8 12 -18 15 -20 7 -31 76 -12 76 6 0 9 4 5 9 -3 6 4 8
16 6 12 -2 18 -1 15 3 -4 4 -12 8 -17 8 -5 1 -13 2 -17 3 -12 1 -9 67 2 78 5
4 6 3 2 -4 -3 -6 -2 -15 4 -18 8 -5 8 -11 0 -20 -8 -10 -8 -15 1 -21 7 -4 9
-3 5 4 -3 5 0 12 6 15 10 3 10 7 0 19 -11 14 -9 19 10 33 20 14 20 16 4 13
-10 -2 -21 3 -24 11 -3 8 0 11 7 7 18 -11 13 6 -6 20 -16 12 -16 13 6 9 13 -2
20 -1 17 3 -7 7 -12 8 -38 11 -6 0 -8 4 -5 7 3 4 2 14 -3 24 -6 12 -5 17 5 17
7 0 11 -6 8 -13 -2 -6 0 -15 6 -19 7 -4 8 0 4 11 -4 12 -3 15 5 10 7 -4 12 -2
12 3 0 6 -4 11 -9 11 -10 0 -9 26 2 36 11 11 8 44 -4 44 -5 0 -7 5 -4 10 3 6
-1 13 -9 16 -9 3 -13 10 -10 15 3 5 1 9 -4 9 -5 0 -9 8 -9 18 0 35 -4 39 -35
38 -32 -1 -33 0 -33 46 -1 26 2 45 5 42 3 -3 5 -10 5 -15 0 -5 3 -9 8 -9 4 0
12 0 19 0 6 0 3 6 -8 14 -10 8 -15 18 -11 22 4 5 12 2 17 -6 6 -9 10 -10 10
-3 0 7 -8 17 -17 22 -17 10 -17 10 0 11 9 0 17 4 17 10 0 5 -8 7 -17 4 -16 -5
-16 -4 1 10 18 15 18 15 -1 13 -16 -1 -20 -7 -18 -29 1 -15 -1 -28 -6 -28 -5
0 -7 20 -6 44 1 24 5 42 9 40 3 -2 8 -1 11 3 2 5 2 3 1 -4 -2 -7 3 -10 12 -6
8 3 12 8 10 11 -3 3 0 12 7 20 10 13 9 14 -3 7 -8 -5 -23 -11 -34 -12 -16 -3
-17 -1 -5 14 9 11 10 14 2 9 -9 -5 -13 2 -13 23 0 17 -3 32 -7 32 -5 1 -62 3
-128 4 -129 4 -150 6 -162 20 -4 4 -3 5 3 2 7 -4 15 0 18 9 3 8 2 12 -3 9 -5
-3 -12 -1 -15 4 -4 5 -1 13 5 17 8 5 8 8 -1 14 -8 5 -8 9 3 13 11 4 15 0 12
-13 -2 -10 3 -21 12 -24 13 -5 13 -9 2 -24 -13 -15 -12 -16 4 -3 14 11 15 17
5 28 -9 11 -9 16 1 22 10 6 9 10 -3 14 -22 9 -20 28 2 21 10 -4 13 -3 6 3 -14
10 -14 43 0 43 6 0 3 5 -6 11 -10 5 -18 14 -18 19 0 5 8 7 18 4 12 -4 13 -3 4
3 -7 5 -10 17 -6 26 3 10 1 17 -6 17 -6 0 -8 -4 -5 -10 3 -5 2 -10 -3 -10 -11
0 -10 -50 1 -67 5 -8 3 -13 -3 -13 -6 0 -9 -4 -6 -8 2 -4 1 -14 -3 -21 -6 -9
-11 -10 -15 -2 -4 6 -2 11 5 11 8 0 7 5 -2 17 -10 11 -10 14 -1 9 6 -4 12 -3
12 3 0 5 -4 12 -8 15 -10 6 -9 42 1 52 10 10 9 26 -1 20 -5 -3 -8 10 -7 29 0
26 -3 35 -15 35 -9 0 -22 6 -29 13 -11 10 -13 10 -7 0 4 -7 2 -13 -3 -13 -6 0
-11 14 -11 30 0 17 -3 30 -7 31 -20 3 -1372 4 -1386 1z m1859 -767 c4 -8 1
-21 -5 -29 -6 -7 -8 -16 -4 -19 3 -4 1 -7 -5 -7 -7 0 -12 7 -12 15 0 8 5 15
11 15 5 0 7 5 4 10 -4 6 -11 8 -16 5 -5 -3 -6 1 -3 9 8 20 23 20 30 1z m-11
-155 c-4 -6 -2 -16 4 -23 7 -9 5 -13 -8 -13 -13 0 -16 6 -13 23 2 13 9 23 14
23 5 0 6 -5 3 -10z m-135 -332 c0 -10 2 -10 9 0 7 11 9 11 14 -1 8 -20 -3 -29
-19 -16 -16 13 -30 -7 -15 -24 8 -11 9 -22 2 -56 -1 -2 -7 2 -15 8 -16 14 -18
49 -3 69 6 8 5 12 -2 12 -7 0 -9 5 -6 10 9 14 35 12 35 -2z m-1284 -87 c-5 -8
-13 -8 -28 0 -16 9 -19 8 -12 -3 11 -17 12 -49 2 -70 -4 -9 -4 -19 1 -22 14
-9 6 -39 -12 -42 -10 -1 -14 3 -10 12 3 8 10 14 17 14 8 0 8 2 -1 8 -6 4 -10
23 -9 42 1 19 -1 45 -5 57 -7 18 -4 21 17 18 13 -1 24 3 24 8 0 8 4 7 11 0 6
-6 8 -16 5 -22z m157 13 c5 12 24 14 47 6 3 -1 15 -1 28 0 26 2 31 -15 5 -18
-41 -4 -63 -9 -69 -15 -9 -9 -44 22 -44 37 0 6 7 3 14 -7 11 -15 15 -15 19 -3z
m900 -1 c-6 -16 -5 -16 10 -5 9 8 21 11 27 7 5 -3 10 -1 10 6 0 10 3 10 11 2
17 -17 3 -31 -26 -28 -14 2 -25 0 -25 -5 0 -9 -26 -7 -36 3 -4 4 -2 7 4 7 7 0
12 7 12 15 0 8 4 15 10 15 5 0 6 -8 3 -17z m-943 -3 c0 -5 -2 -10 -4 -10 -3 0
-8 5 -11 10 -3 6 -1 10 4 10 6 0 11 -4 11 -10z m1120 0 c0 -5 -2 -10 -4 -10
-3 0 -8 5 -11 10 -3 6 -1 10 4 10 6 0 11 -4 11 -10z m-1787 -137 c-6 -16 -5
-17 11 -3 26 20 64 21 61 1 -1 -12 -14 -16 -50 -16 -48 0 -74 19 -38 28 10 3
19 5 20 6 1 0 -1 -7 -4 -16z m312 8 c-3 -5 -1 -12 5 -16 5 -3 10 -1 10 4 0 6
7 11 15 11 8 0 15 -5 15 -11 0 -5 -4 -8 -9 -4 -5 3 -12 1 -16 -5 -11 -17 -31
-11 -32 10 -1 11 3 20 8 20 6 0 8 -4 4 -9z m1205 -11 c0 -5 -4 -10 -10 -10 -5
0 -10 5 -10 10 0 6 5 10 10 10 6 0 10 -4 10 -10z m-410 -16 c0 -8 -19 -13 -24
-6 -3 5 1 9 9 9 8 0 15 -2 15 -3z"/>
<path d="M2305 740 c2 -27 10 -33 12 -10 1 11 -2 22 -6 24 -4 3 -7 -4 -6 -14z"/>
<path d="M1206 713 c-6 -14 -5 -15 5 -6 7 7 10 15 7 18 -3 3 -9 -2 -12 -12z"/>
<path d="M516 581 c-3 -4 6 -7 19 -7 14 0 22 2 19 5 -8 8 -34 10 -38 2z"/>
<path d="M2383 1432 c1 -12 6 -18 15 -15 7 3 10 9 5 12 -4 3 -11 10 -15 15 -4
4 -6 -1 -5 -12z"/>
<path d="M2477 1339 c7 -7 15 -10 18 -7 3 3 -2 9 -12 12 -14 6 -15 5 -6 -5z"/>
<path d="M208 1173 c-17 -4 -21 -43 -5 -43 5 0 6 7 3 16 -3 8 -2 12 4 9 6 -3
10 -1 10 5 0 7 6 5 15 -4 8 -8 24 -13 35 -11 11 2 20 -1 20 -7 0 -6 2 -9 5 -6
3 3 3 13 -1 22 -7 18 -34 22 -34 5 0 -6 -7 -3 -16 5 -8 9 -16 15 -17 15 -1 -1
-10 -3 -19 -6z"/>
<path d="M165 1161 c-3 -5 -2 -12 3 -15 5 -3 9 1 9 9 0 17 -3 19 -12 6z"/>
<path d="M445 1089 c-17 -6 -17 -8 -3 -8 10 -1 16 -7 14 -13 -1 -7 -1 -10 1
-6 3 5 13 3 24 -3 11 -5 19 -6 18 -2 -3 20 2 34 10 28 5 -3 12 -1 15 4 4 5 -2
8 -11 7 -9 -2 -19 -8 -21 -14 -2 -7 -8 -12 -13 -12 -6 0 -8 4 -4 9 8 14 -7 20
-30 10z"/>
<path d="M2466 972 c-7 -11 -1 -47 8 -45 20 5 30 11 19 12 -6 1 -9 10 -6 21 5
19 -11 28 -21 12z"/>
<path d="M1335 710 c-4 -6 -11 -8 -16 -5 -5 4 -9 1 -9 -5 0 -7 6 -10 14 -7 7
3 20 0 27 -6 11 -10 11 -9 0 6 -15 19 -2 24 16 6 8 -8 13 -8 17 0 4 6 6 11 4
12 -31 7 -48 7 -53 -1z"/>
<path d="M1739 667 c-1 -4 -6 -47 -5 -47 1 0 9 9 18 19 14 16 14 20 2 25 -8 3
-14 4 -15 3z"/>
<path d="M633 635 c0 -6 6 -12 12 -12 6 0 12 6 12 12 0 6 -6 12 -12 12 -6 0
-12 -6 -12 -12z"/>
<path d="M1731 603 l-21 -18 20 -25 c13 -15 18 -18 14 -7 -5 13 -2 16 12 11
17 -6 17 -5 -1 9 l-20 16 20 1 c15 0 17 2 6 9 -11 7 -11 9 0 14 8 3 9 6 3 6
-7 1 -21 -7 -33 -16z m6 -18 c0 -8 -4 -12 -9 -9 -5 3 -6 10 -3 15 9 13 12 11
12 -6z"/>
<path d="M386 574 c-8 -21 -8 -24 5 -24 5 0 7 5 4 10 -3 6 -2 10 4 10 5 0 12
-6 14 -12 4 -8 6 -9 6 -2 1 6 -5 17 -13 23 -11 9 -15 8 -20 -5z"/>
<path d="M1836 581 c-4 -6 -2 -11 4 -11 6 0 9 -4 6 -8 -2 -4 4 -8 14 -9 10 -1
21 4 23 12 4 8 -1 12 -11 10 -9 -1 -20 2 -23 7 -4 6 -9 6 -13 -1z"/>
<path d="M2070 560 c0 -5 5 -10 10 -10 6 0 10 5 10 10 0 6 -4 10 -10 10 -5 0
-10 -4 -10 -10z"/>
</g>
</svg>
